<svg id="logo" xmlns="http://www.w3.org/2000/svg" width="169.62" height="31.207" viewBox="0 0 169.62 31.207">
  <g id="グループ_5952" data-name="グループ 5952">
    <g id="グループ_5951" data-name="グループ 5951">
      <path id="パス_2951" data-name="パス 2951" d="M23.072,12.361c.095-.152,3.765-7.467,4.524-8.982.123-.259.15-.263-.152-.274-.274-.01-7.146-.046-8.436-.053-.134,0-.2,0-.276.147-.057.105-.31.622-.442.894-.049.1-.108.169-.4.163C16,4.215,6.178,4.034,6.02,4.044a.433.433,0,0,0-.4.228c-.072.143-3.647,7.2-3.816,7.565s-.274.468.215.5c.341.021,1.182.035,1.662.042.245.022.315.11.258.428C3.889,13.191.516,28.53.019,30.788c-.039.18-.038.251.226.281.242.028,6.629.074,7.69.082.118.018.146-.021.185-.165s1.453-6.617,1.7-7.725a.216.216,0,0,1,.206-.161l7.321-.025a.224.224,0,0,0,.241-.137c.064-.11,2.786-5.341,3.49-6.7.1-.2.152-.307-.123-.319-.251-.011-7.878-.066-9.249-.076-.136,0-.2-.078-.165-.223s.575-2.9.613-3.029a.224.224,0,0,1,.248-.185c.109.011,8.961.089,10.4.1.2,0,.21-.051.272-.151" transform="translate(0 -2.411)" fill="#164ca0"/>
      <path id="パス_2952" data-name="パス 2952" d="M135.91,10.4c-.3,0-6.127-.065-7.347-.079-.21,0-.243.005-.3.227s-4.111,18.5-4.247,18.958a1.08,1.08,0,0,1-1.027.747c-.441.045-2.849-.036-3.884-.074-.525.008-.262-.726-.046-2.3.163-1.183.5-2.572.728-3.623.557-2.554,2.574-11.531,3.03-13.562.066-.371.079-.424-.3-.414-1.583-.014-7.4-.065-7.5-.07s-.134,0-.231.136-3.215,6.269-3.91,7.634c-.087.171-.136.265.14.272l1.85.04c.183,0,.269.136.233.334-.019.1-1.117,5.171-2.122,9.945-.561,2.665-.675,2.826-1.663,7.809-.121.548-.017.487.167.485s17.567.208,17.567.208c3.254.039,3.739-1.653,3.87-2.139,0,0,5.224-23.964,5.249-24.176s.091-.364-.25-.36" transform="translate(-86.321 -8.071)" fill="#164ca0"/>
      <path id="パス_2953" data-name="パス 2953" d="M240.116,11.18l-11.487-.21a.371.371,0,0,0-.3.188l-3.61,7.128a.12.12,0,0,0,.117.188l5.426.177a.264.264,0,0,1,.236.3s-.621,3.322-1.242,5.9-1.084,4.933-1.084,4.933c-.315,1.242-.987,1.215-1.1,1.215L222.5,30.96a.277.277,0,0,0-.257.2l-1.418,6.33a.16.16,0,0,0,.163.2H232.25a2.9,2.9,0,0,0,2.72-2.1l5.31-24.207a.161.161,0,0,0-.164-.2" transform="translate(-174.465 -8.667)" fill="#164ca0"/>
      <path id="パス_2954" data-name="パス 2954" d="M319.4,11.6c-1.457-.019-7.209-.1-7.347-.1-.157,0-.244.016-.364.244-.1.194-2.7,5.418-3.477,6.98-.134.306-.265.437.351.441.389-.011.974,0,1.364.019.3,0,.381.108.3.488q-.728,3.5-1.482,6.993c-.64,2.96-2.037,9.514-2.392,11.18-.1.391-.022.382.135.393.139.01,5.913.082,7.281.1.328.03.375-.4.375-.4s5.457-25.718,5.519-26.017.022-.313-.267-.317" transform="translate(-242.017 -9.085)" fill="#164ca0"/>
      <path id="パス_2955" data-name="パス 2955" d="M381.443,24.065c.557-.774.6-.817,8.582-12.147.112-.2.164-.309-.159-.308l-7.329-.012a.411.411,0,0,0-.361.166c-.264.3-5.353,7.282-5.614,7.593-.384.457-.76,1.061-.367-.479.079-.31.991-4.719,1.36-6.507.136-.665.171-.753-.476-.748-1.848.014-7.142-.045-7.347-.049-.249,0-.407-.03-.52.28-.181.322-2.945,5.952-3.512,7.106-.088.192-.048.207.1.213.1,0,1.153.029,1.775.044.306.01.429.107.346.519s-3.327,15.412-3.938,18.234c-.133.438.059.452.277.454.2,0,6.277-.013,7.486-.019.175,0,.2.028.249-.172.038-.157,1.492-6.824,2.119-9.7.265-1.566.527-.736.783-.123.149.357,3.363,7.807,4.13,9.584.1.241.128.381.434.379l7.39-.018c.124,0,.174-.016.1-.2s-5.484-12.8-5.65-13.195a.842.842,0,0,1,.14-.892" transform="translate(-287.542 -9.144)" fill="#164ca0"/>
      <path id="パス_2956" data-name="パス 2956" d="M492.464,0a15.4,15.4,0,0,0-15.288,15.639,15.344,15.344,0,0,0,15.288,15.568,15.6,15.6,0,0,0,0-31.207m-.1,23.055A7.278,7.278,0,1,1,492.5,8.5a7.4,7.4,0,0,1,7.276,7.1,7.377,7.377,0,0,1-7.416,7.452" transform="translate(-377.012)" fill="#e60012"/>
      <path id="パス_2957" data-name="パス 2957" d="M644.186,29.783c-.979-2.26-1.751-4.045-1.812-4.19a.741.741,0,0,1,.128-.79c.1-.137.184-.254.3-.417.363-.494,1.04-1.415,3.321-4.6.368-.514.78-1.083,1.239-1.717,1.029-1.423,2.31-3.193,3.874-5.413l.028-.037c.095-.126.17-.226.116-.33s-.182-.115-.39-.109c-.288.009-6.343.017-7.562.014a.475.475,0,0,0-.443.209c-.108.147-.447.625-.91,1.276-1.331,1.874-3.809,5.363-4.556,6.286q-.061.074-.119.15c-.06.076-.134.171-.191.233a5.156,5.156,0,0,1,.127-.774l.051-.243c.646-3.084,1.108-5.181,1.375-6.24.021-.113.041-.209.058-.291.053-.246.082-.382,0-.482s-.249-.106-.64-.1c-1.8.033-6.939-.03-7.265-.036h-.048c-.226-.005-.44-.01-.566.334-.136.243-1.652,3.345-2.654,5.4l-.756,1.546a.3.3,0,0,0-.033.275.246.246,0,0,0,.22.086c.1,0,1.005.031,1.628.046.124,0,.194.021.22.053a.512.512,0,0,1,.008.31c-.046.278-1.495,6.916-2.659,12.25-.584,2.677-1.09,5-1.293,5.937a.522.522,0,0,0,.008.466.433.433,0,0,0,.369.123l.5.006c1.452.018,5.869.071,6.885.067h.048c.183.006.25-.028.3-.254.042-.173,1.541-6.663,2.173-9.558a2.628,2.628,0,0,1,.183-.684,2.667,2.667,0,0,1,.171.384c.029.074.059.151.091.228.1.234,1.552,3.608,4.092,9.494.113.312.2.45.565.45h.006l1.952.007c1.765.006,4.36.016,5.346.016h.216a.238.238,0,0,0,.211-.077.294.294,0,0,0-.008-.269c-.042-.113-1.793-4.159-3.9-9.036" transform="translate(-493.755 -9.623)" fill="#164ca0"/>
      <path id="パス_2958" data-name="パス 2958" d="M754.045,11.871c-.07-.087-.193-.089-.349-.092-1.031-.013-4.446.016-6.487.033-.78.007-1.4.013-1.435.011-.2-.006-.321.037-.461.3l-.036.067c-.677,1.274-2.941,5.539-3.628,6.92l-.039.086c-.064.137-.119.255-.052.361s.205.139.541.141c.383-.011,1.147,0,1.543.019.086,0,.139.014.16.04s.038.107-.011.32c-.177.764-.5,2.267-.87,4.006-.207.966-.426,1.991-.639,2.975-.25,1.155-.631,2.833-1.034,4.609-.621,2.74-1.264,5.573-1.449,6.593-.062.242-.064.356-.007.435a.283.283,0,0,0,.237.089c.074,0,1.616.018,3.96.039,1.582.013,3.173.027,3.778.034h.083c.312,0,.351-.208.4-.466l.005-.027c.033-.172,1.986-8.953,3.555-16.008,1.2-5.372,2.226-10.011,2.253-10.138.031-.148.049-.268-.019-.352" transform="translate(-584.471 -9.304)" fill="#164ca0"/>
      <path id="長方形_4781" data-name="長方形 4781" d="M0,0H169.62V31.207H0Z" fill="none"/>
    </g>
  </g>
</svg>
