<svg xmlns="http://www.w3.org/2000/svg" width="264" height="28"><path d="M53.1 4.43a3.054 3.054 0 012.644.928 3.277 3.277 0 01.844 2.615v14.034a.565.565 0 00.581.639h.958c.583 0 1.075 0 1.075-3.226a2.741 2.741 0 01.087-1.131 1.444 1.444 0 011.454-.9c1.773 0 1.773 1.364 1.773 2.527 0 .03-.029 3.314-.7 4.678a2.908 2.908 0 01-2.877 1.713H56.3c-2.789 0-3.167-1.48-3.167-2.818V8.933c-.03-.757-.03-.96-.524-.96H47.7V9.8a24.987 24.987 0 01-.436 5.172 35.257 35.257 0 014.244 2.76 2.278 2.278 0 01.552 1.364 1.986 1.986 0 01-1.917 1.86c-.5 0-.843-.087-2.443-1.306a17.213 17.213 0 00-1.569-1.046c-1.918 4.473-7.265 8.046-8.923 8.279-.145 0-.261.028-.376.028a1.688 1.688 0 01-1.685-1.858 1.426 1.426 0 01.93-1.425c2.614-1.481 5.084-2.875 6.886-6.942-3.2-1.86-3.6-2.093-4.533-2.585a1.584 1.584 0 01-1.075-1.482 1.791 1.791 0 011.656-1.918 2.872 2.872 0 011.454.408c1.22.58 2.789 1.45 3.6 1.916a18.466 18.466 0 00.175-3.193V7.973H38.4c-1.221 0-2.324 0-2.324-1.714 0-1.83 1.22-1.83 2.324-1.83h5.841V2.484c0-1.221 0-2.324 1.686-2.324a1.507 1.507 0 011.511.639 2.967 2.967 0 01.261 1.685V4.43H53.1zm65.758-1.715c0-1.364 0-2.324-1.684-2.324-1.542 0-1.542 1.1-1.542 2.324V11.2c0 .582 0 .813-.93.813-.174 0-1.016-.058-1.191-.058a1.6 1.6 0 00-1.541 1.683c0 1.657 1.657 1.657 3.227 1.657 1.075 0 3.661 0 3.661-2.643V2.715zm-5.377.582c0-1.251 0-2.327-1.656-2.327-1.541 0-1.541 1.193-1.541 2.327v5.112c0 1.279 0 2.326 1.658 2.326 1.539 0 1.539-1.163 1.539-2.326V3.3zm-16.8 2.206a6.975 6.975 0 00.552-.9h2.731v.9h-3.283zm7.5 16.708a3.546 3.546 0 00-.116-1.308 26.874 26.874 0 002.326-1.248 15.6 15.6 0 002.878 3.574c3.226 3.106 8.312 3.833 8.923 3.833a1.546 1.546 0 001.569-1.744 1.409 1.409 0 00-1.222-1.48 17.661 17.661 0 01-3.488-.843c2.3-1.51 2.646-1.714 2.646-2.5a1.858 1.858 0 00-.785-1.422h.466c.987 0 2.264 0 2.264-1.454s-1.277-1.45-2.264-1.45h-7.82c.058-1.8-.115-2.18-.755-2.442v-2.644c0-1.86-2.062-1.976-2.557-1.976h-3.11v-.814h3.605a3.562 3.562 0 001.684-.173 1.336 1.336 0 00.64-1.219 1.387 1.387 0 00-1.685-1.4h-4.244V4.6h3.052a3.7 3.7 0 001.714-.145 1.309 1.309 0 00.611-1.161 1.326 1.326 0 00-.611-1.191 3.491 3.491 0 00-1.714-.147h-3.052c0-.843 0-1.889-1.627-1.889-1.541 0-1.541 1.076-1.541 1.889h-1.541a1.641 1.641 0 00-1.684-1.8 1.353 1.353 0 00-1.193.812c-.087.177-.553 1.165-.668 1.4a6.587 6.587 0 00-.9 2.093 1.413 1.413 0 00.465 1.075 1.292 1.292 0 00-1.162 1.367A1.4 1.4 0 0095 8.293h4.971v.814h-3.43a1.985 1.985 0 00-2.064 2.268V13.2c0 1.4 0 2.324 1.745 2.324 1.541 0 1.541-1.1 1.541-2.324v-.75a.492.492 0 01.552-.554h1.656v1.48c0 1.4 0 2.326 1.629 2.326 1.539 0 1.539-1.018 1.539-2.326V11.9h1.975c.5 0 .553 0 .553.319v.407a.235.235 0 01-.261.29c-.087 0-.669-.088-.814-.088a1.069 1.069 0 00-1.133 1.191c0 1.687 1.917 1.6 2.644 1.57v.582H95.611c-.99 0-2.268 0-2.268 1.45s1.278 1.454 2.268 1.454h5.489a55.1 55.1 0 01-6.568 2.093c-.754.2-1.539.406-1.539 1.422a1.485 1.485 0 001.423 1.6c1.046 0 5.115-1.394 6.481-1.915v1.655c-.349.03-2.152.088-2.558.145-.813.06-1.947.177-1.947 1.6a1.533 1.533 0 001.8 1.595c1.016 0 9.067-.639 9.706-.754a1.4 1.4 0 001.192-1.4 1.467 1.467 0 00-1.511-1.712c-.233 0-3.022.259-3.4.288v-1.481zm11.162-3.139c-.989.669-3.111 1.975-3.489 2.179a13.329 13.329 0 01-2.121-2.179h5.61zm33.662-3.456a1.412 1.412 0 00-.551-1.4c-.319-.291-3.341-2.179-4.33-2.179a1.781 1.781 0 00-1.541 1.684 1.436 1.436 0 00.786 1.281c.842.521 3.458 2.061 4.155 2.061a1.681 1.681 0 001.483-1.447zm-5.172-4.1c.786 0 1.193-.118 2.849-1.685 1.133-1.047 1.656-1.774 1.656-2.384a1.621 1.621 0 00-1.656-1.6 1.316 1.316 0 00-.988.436c-.872.84-2.006 1.947-2.644 2.44a1.144 1.144 0 00-.611 1.161 1.577 1.577 0 001.396 1.635zm-16.972.668c-.524.175-3.721 2.181-3.749 2.181a1.205 1.205 0 00-.611 1.073 1.7 1.7 0 001.6 1.86 6.815 6.815 0 002.645-1.046c2.266-1.336 2.266-2.061 2.266-2.557a1.505 1.505 0 00-1.423-1.655 2.453 2.453 0 00-.726.146zm1.628-3.021a1.916 1.916 0 00-1.047-1.424c-.814-.639-2.124-1.569-2.907-1.569a1.353 1.353 0 00-1.482 1.482 1.808 1.808 0 001.017 1.685c1.394.988 2.18 1.509 2.849 1.509a1.942 1.942 0 001.017-.346 1.375 1.375 0 00.555-1.335zm3.865-7c0-.958-.175-1.8-1.744-1.8a1.494 1.494 0 00-1.571 1.8h-3.864a3.275 3.275 0 00-1.687.2 1.429 1.429 0 00-.639 1.133 1.319 1.319 0 00.639 1.163 3.275 3.275 0 001.687.2h3.864c0 .93 0 1.946 1.744 1.946 1.571 0 1.571-1.132 1.571-1.946h6.683a1.631 1.631 0 103.257 0h4.651a3.2 3.2 0 001.656-.2 1.319 1.319 0 00.639-1.135 1.352 1.352 0 00-.639-1.162 3.2 3.2 0 00-1.656-.2H142.3a1.637 1.637 0 10-3.257 0h-6.683zm6.246 10.923v.7a.366.366 0 01-.436.436h-5.024a.366.366 0 01-.436-.436v-.7h5.9zm-1.162 3.836h1.773c1.279 0 2.558-.552 2.558-2.091V9.31c0-1.569-1.307-2.091-2.558-2.091h-2.092a1.759 1.759 0 00.145-.669 1.643 1.643 0 00-1.774-1.424 1.293 1.293 0 00-1.16.639c0 .03-.641 1.364-.671 1.454h-1.336c-1.249 0-2.529.55-2.529 2.091v5.521c0 1.567 1.309 2.091 2.529 2.091h1.628V18h-9.01c-1.193 0-2.325 0-2.325 1.512s1.132 1.511 2.325 1.511h4.68a25.687 25.687 0 01-5.522 2.353 1.669 1.669 0 00-1.6 1.714c0 1.452 1.627 1.452 1.83 1.452a19.163 19.163 0 009.621-4.855v2.734c0 1.482 0 2.324 1.89 2.324 1.6 0 1.6-1.075 1.6-2.324v-2.79c2.615 2.848 8.08 5.114 9.506 5.114a1.655 1.655 0 001.772-1.714 1.516 1.516 0 00-1.338-1.655 16.749 16.749 0 01-5.58-2.356h4.767c1.164 0 2.325 0 2.325-1.511S147.759 18 146.567 18h-9.126v-1.078zm-4.738-5.985v-.7a.366.366 0 01.436-.436h5.027a.366.366 0 01.436.436v.7h-5.9zm35.06-8.367c0-1.248 0-2.324 1.57-2.324 1.8 0 1.8.871 1.8 2.324v1.51H175c.992 0 2.327 0 2.327 1.657 0 1.627-1.335 1.627-2.327 1.627h-3.862V10.3h4.388c1.22 0 2.323 0 2.323 1.539 0 1.745-.928 1.745-2.323 1.745H173.2a30.87 30.87 0 003.256 6.128c.26.377 1.511 1.974 1.685 2.353a1.973 1.973 0 01.2.842 1.77 1.77 0 01-1.772 1.715 2.28 2.28 0 01-1.719-1.191 36.261 36.261 0 01-3.716-6.712v7.729c0 1.249 0 2.324-1.571 2.324-1.8 0-1.8-.871-1.8-2.324v-7.235a31.86 31.86 0 01-3.75 6.1c-.929 1.106-1.395 1.4-2.034 1.4a1.833 1.833 0 01-1.772-1.742c0-.669.2-.9 1.395-2.237a24.352 24.352 0 004.241-7.146H163.2c-1.22 0-2.325 0-2.325-1.543 0-1.741.93-1.741 2.325-1.741h4.564v-2.94h-2.618c-.754 1.946-1.132 2.441-1.976 2.441a1.843 1.843 0 01-1.887-1.51 3.235 3.235 0 01.464-1.366 22.312 22.312 0 001.511-4.969 1.382 1.382 0 011.425-1.249 1.52 1.52 0 011.714 1.482 12.626 12.626 0 01-.29 1.888h1.657V2.57zM158 24.447c0 1.249 0 2.324-1.6 2.324-1.8 0-1.8-.871-1.8-2.324v-8.395c-.844 1.916-1.251 2.672-2.122 2.672a1.752 1.752 0 01-1.744-1.685c0-.436 0-.466 1.017-2.151a25.4 25.4 0 002.791-6.276h-.842c-1.163 0-2.327 0-2.327-1.625s1.164-1.628 2.327-1.628h.9V2.54c0-1.248 0-2.324 1.569-2.324C158 .216 158 1.088 158 2.54v2.818h.436c1.191 0 2.325 0 2.325 1.628s-1.164 1.625-2.325 1.625H158V9.6a39 39 0 002.7 3.631 2.6 2.6 0 01.931 1.745 1.543 1.543 0 01-1.453 1.57c-.7 0-1.133-.464-2.18-1.86v9.762zm31.31-2.673c1.015-.172 1.25-.233 3.225-.668a3.441 3.441 0 01.874-.144 1.658 1.658 0 011.6 1.713 1.638 1.638 0 01-1.047 1.657c-2.613 1.075-10.605 1.83-11.74 1.83-.728 0-2.064 0-2.064-1.685a1.708 1.708 0 011.776-1.888c1.975-.089 2.295-.117 3.891-.291v-7.03H183c-1.072 0-1.481 0-1.86-.436a2.019 2.019 0 01-.464-1.249 1.839 1.839 0 01.668-1.394 2.69 2.69 0 011.656-.264h9.1c1.047 0 1.483 0 1.859.436a2 2 0 01.469 1.249 1.846 1.846 0 01-.67 1.4 2.808 2.808 0 01-1.658.261h-2.789v6.508zM199.8 8.148a57.407 57.407 0 002.353 12.928c.089.321.436 1.307.784 1.307.468 0 .669-.841.9-2.177a1.386 1.386 0 011.364-1.163 1.632 1.632 0 011.773 1.511 13.681 13.681 0 01-1.047 4.33 3.111 3.111 0 01-2.731 2.178c-1.714 0-2.761-1.6-3.168-2.294a22.586 22.586 0 01-2.442-6.626 55.951 55.951 0 01-1.424-9.993H182.42c-1.251 0-2.326 0-2.326-1.568 0-1.8.872-1.8 2.326-1.8h13.544a16.145 16.145 0 01.115-3.574 1.445 1.445 0 011.511-.871c1.135 0 1.6.406 1.772 1.162.091.318.205 2.76.235 3.282h2.7c-1.716-2.324-1.774-2.671-1.774-3.166a1.67 1.67 0 011.686-1.6c.9 0 1.337.492 2.236 1.6 1.135 1.394 1.31 1.859 1.31 2.351a1.208 1.208 0 01-.406.9 1.348 1.348 0 01.957 1.482c0 1.8-.871 1.8-2.325 1.8H199.8zm16.46 9.645c-.092.176-.582 1.481-.845 2.207-.525 1.426-.931 2.354-1.22 3.021a13.463 13.463 0 00-2.909.321 1.487 1.487 0 00-1.014 1.541 1.924 1.924 0 00.666 1.511 2.476 2.476 0 001.746.436 22.526 22.526 0 003.14-.233c1.566-.175 3.485-.378 5.085-.524 1.422-.145 8.341-.87 9.066-1.075.089.117.9 1.482.929 1.512a1.471 1.471 0 001.223.551 2.01 2.01 0 002-1.713c0-.495 0-.959-2.181-3.893-2.412-3.284-2.848-3.284-3.428-3.284a1.778 1.778 0 00-1.8 1.6 1.581 1.581 0 00.262.9c.232.35.638.872.9 1.221-2.821.35-6.833.639-9.679.841.406-1.046 1.624-4.27 1.77-4.939h13.167c1.19 0 2.326 0 2.326-1.771 0-1.714-1.191-1.714-2.326-1.714h-21.822c-1.162 0-2.325 0-2.325 1.743s1.163 1.742 2.325 1.742h4.944zm11.509-6.449c1.451 0 2.411 0 2.323-2 1.251.784 2.646 1.655 3.721 1.655 1.018 0 1.6-1.394 1.6-1.974a1.544 1.544 0 00-.985-1.51 53.579 53.579 0 01-8.865-5.55c-2.355-1.773-2.5-1.86-3.372-1.86a3.459 3.459 0 00-2.268 1.075 40.282 40.282 0 01-8.282 5.463c-2.238.9-2.817 1.305-2.817 2.439A1.8 1.8 0 00210.682 11a3.705 3.705 0 00.842-.116 24.525 24.525 0 002.994-1.483c-.174 1.948.872 1.948 2.3 1.948h10.957zm-10.842-3.37a34.885 34.885 0 004.68-3.543 1.135 1.135 0 01.611-.408 1.288 1.288 0 01.549.29 32.946 32.946 0 005.119 3.661h-10.959zm37.7 2.73h-3.488c-1.135 0-2.357 0-2.357-1.714s1.222-1.715 2.357-1.715h3.488V2.832c0-1.135 0-2.326 1.712-2.326a1.8 1.8 0 011.543.7 3.055 3.055 0 01.231 1.627v4.443h3.167c1.106 0 2.326 0 2.326 1.715s-1.22 1.714-2.326 1.714h-3.167v12.026h3.545c1.106 0 2.326 0 2.326 1.745s-1.22 1.743-2.326 1.743h-11.446c-1.074 0-2.325 0-2.325-1.743s1.251-1.745 2.325-1.745h4.42V10.7zm-9.587 14.033c0 1.308 0 2.353-1.658 2.353-1.772 0-1.772-.812-1.772-2.353v-6.3c-1.742 1.657-2.152 1.743-2.674 1.743a1.725 1.725 0 01-1.746-1.858c0-.9.177-1.076 1.949-2.557 3.227-2.673 5.234-6.77 5.234-7.294 0-.231-.062-.231-.493-.231h-3.927c-1.222 0-2.323 0-2.323-1.715s1.248-1.711 2.323-1.711h1.571V2.832c0-1.22 0-2.326 1.569-2.326 1.83 0 1.83.9 1.83 2.326v1.976h1.423a2.064 2.064 0 011.979 2.177A14.77 14.77 0 01246 13c.466.291 2.759 1.8 3.342 2.324a1.541 1.541 0 01.669 1.279 1.807 1.807 0 01-1.716 1.771 1.593 1.593 0 01-1.017-.4 181.83 181.83 0 00-2.236-1.628v8.4zM75.267 14.973h10.648v7.611H75.267v-7.611zm13.67-13.085h-20.7a1.893 1.893 0 100 3.786h1.348a38.969 38.969 0 01-5.13 13.626 1.9 1.9 0 103.2 2.038 38.934 38.934 0 003.824-7.971v11.108a1.9 1.9 0 001.895 1.9h14.437a1.9 1.9 0 001.9-1.9v-13.4a1.9 1.9 0 00-1.9-1.894 2.323 2.323 0 00-1.893 1.894v.105H75.267v-.11a2.23 2.23 0 00-1.9-1.9 1.852 1.852 0 00-.679.128c.373-1.491.6-2.743.741-3.628h15.5a1.893 1.893 0 10.008-3.781z" fill-rule="evenodd" fill="#221815"/><path d="M13.973 25.7a11.685 11.685 0 1111.688-11.688A11.689 11.689 0 0113.973 25.7zm0-25.658a13.974 13.974 0 1013.98 13.97A13.974 13.974 0 0013.973.037zm-2.16 14.839h7.034V19.9h-7.034v-5.024zm9.029-8.642H7.17a1.25 1.25 0 100 2.5h.89a25.672 25.672 0 01-3.388 9 1.253 1.253 0 002.112 1.348 25.605 25.605 0 002.524-5.268v7.336a1.256 1.256 0 001.254 1.254H20.1a1.258 1.258 0 001.255-1.254V12.3a1.257 1.257 0 00-1.255-1.25 1.537 1.537 0 00-1.249 1.251v.071h-7.033V12.3a1.471 1.471 0 00-1.251-1.249 1.205 1.205 0 00-.448.083c.245-.983.4-1.812.489-2.4h10.239a1.25 1.25 0 10-.005-2.5z" fill="#e00012" fill-rule="evenodd"/></svg>